<svg xmlns="http://www.w3.org/2000/svg">
  <symbol id="uk-flag" version="1.1" width="20" height="20" xmlns:xlink="http://www.w3.org/1999/xlink" x="0px" y="0px" viewBox="0 0 512 512" style="enable-background:new 0 0 512 512;" xml:space="preserve">
    <circle style="fill:#F0F0F0;" cx="256" cy="256" r="256"/>
    <g>
      <path style="fill:#0052B4;" d="M52.92,100.142c-20.109,26.163-35.272,56.318-44.101,89.077h133.178L52.92,100.142z"/>
      <path style="fill:#0052B4;" d="M503.181,189.219c-8.829-32.758-23.993-62.913-44.101-89.076l-89.075,89.076H503.181z"/>
      <path style="fill:#0052B4;" d="M8.819,322.784c8.83,32.758,23.993,62.913,44.101,89.075l89.074-89.075L8.819,322.784L8.819,322.784
        z"/>
      <path style="fill:#0052B4;" d="M411.858,52.921c-26.163-20.109-56.317-35.272-89.076-44.102v133.177L411.858,52.921z"/>
      <path style="fill:#0052B4;" d="M100.142,459.079c26.163,20.109,56.318,35.272,89.076,44.102V370.005L100.142,459.079z"/>
      <path style="fill:#0052B4;" d="M189.217,8.819c-32.758,8.83-62.913,23.993-89.075,44.101l89.075,89.075V8.819z"/>
      <path style="fill:#0052B4;" d="M322.783,503.181c32.758-8.83,62.913-23.993,89.075-44.101l-89.075-89.075V503.181z"/>
      <path style="fill:#0052B4;" d="M370.005,322.784l89.075,89.076c20.108-26.162,35.272-56.318,44.101-89.076H370.005z"/>
    </g>
    <g>
      <path style="fill:#D80027;" d="M509.833,222.609h-220.44h-0.001V2.167C278.461,0.744,267.317,0,256,0
        c-11.319,0-22.461,0.744-33.391,2.167v220.44v0.001H2.167C0.744,233.539,0,244.683,0,256c0,11.319,0.744,22.461,2.167,33.391
        h220.44h0.001v220.442C233.539,511.256,244.681,512,256,512c11.317,0,22.461-0.743,33.391-2.167v-220.44v-0.001h220.442
        C511.256,278.461,512,267.319,512,256C512,244.683,511.256,233.539,509.833,222.609z"/>
      <path style="fill:#D80027;" d="M322.783,322.784L322.783,322.784L437.019,437.02c5.254-5.252,10.266-10.743,15.048-16.435
        l-97.802-97.802h-31.482V322.784z"/>
      <path style="fill:#D80027;" d="M189.217,322.784h-0.002L74.98,437.019c5.252,5.254,10.743,10.266,16.435,15.048l97.802-97.804
        V322.784z"/>
      <path style="fill:#D80027;" d="M189.217,189.219v-0.002L74.981,74.98c-5.254,5.252-10.266,10.743-15.048,16.435l97.803,97.803
        H189.217z"/>
      <path style="fill:#D80027;" d="M322.783,189.219L322.783,189.219L437.02,74.981c-5.252-5.254-10.743-10.266-16.435-15.047
        l-97.802,97.803V189.219z"/>
    </g>
  </symbol>

  <symbol version="1.1" id="argentina-flag" xmlns="http://www.w3.org/2000/svg" xmlns:xlink="http://www.w3.org/1999/xlink" x="0px" y="0px" viewBox="0 0 512 512" style="enable-background:new 0 0 512 512;" xml:space="preserve">
    <circle style="fill:#F0F0F0;" cx="256" cy="256" r="256"/>
    <g>
      <path style="fill:#338AF3;" d="M256,0C154.506,0,66.81,59.065,25.402,144.696h461.195C445.19,59.065,357.493,0,256,0z"/>
      <path style="fill:#338AF3;" d="M256,512c101.493,0,189.19-59.065,230.598-144.696H25.402C66.81,452.935,154.506,512,256,512z"/>
    </g>
    <polygon style="fill:#FFDA44;" points="332.515,256 301.25,270.707 317.899,300.986 283.949,294.491 279.647,328.787 256,303.563
      232.352,328.787 228.051,294.491 194.101,300.985 210.749,270.706 179.485,256 210.75,241.293 194.101,211.015 228.05,217.509
      232.353,183.213 256,208.437 279.648,183.213 283.949,217.509 317.9,211.015 301.251,241.294 "/>
  </symbol>

  <symbol id="orders" width="20" height="20" viewBox="0 0 27 27">
    <path id="Icon_ionic-md-list-box" data-name="Icon ionic-md-list-box" d="M28.688,4.5H7.313A2.812,2.812,0,0,0,4.5,7.313V28.688A2.812,2.812,0,0,0,7.313,31.5H28.688A2.812,2.812,0,0,0,31.5,28.688V7.313A2.812,2.812,0,0,0,28.688,4.5ZM21.375,25.875H10.125V22.5h11.25Zm4.5-6.187H10.125V16.313h15.75Zm0-6.187H10.125V10.125h15.75Z" transform="translate(-4.5 -4.5)"/>
  </symbol>

  <symbol id="menu" width="18.569" height="18.504" viewBox="0 0 18.569 18.504">
    <path id="Icon_material-menu" data-name="Icon material-menu" d="M4.5,27.5H15.166V24.42H4.5Zm0-7.71H23.069V16.71H4.5ZM4.5,9v3.084H19.719V9Z" transform="translate(-4.5 -9)"/>
  </symbol>
</svg>