<svg id="Capa_1" enable-background="new 0 0 512 512" height="512" viewBox="0 0 512 512" width="512" xmlns="http://www.w3.org/2000/svg"><g><g><path clip-rule="evenodd" d="m235.383 238.156h-34.069c-3.823 0-6.967-3.118-6.967-6.945v-76.732l61.653-61.681 61.625 61.681v76.732c0 3.827-3.115 6.945-6.938 6.945zm20.617-184.277c-69.13 0-125.147 56.068-125.147 125.261 0 69.164 56.017 125.261 125.147 125.261 69.101 0 125.147-56.097 125.147-125.261 0-69.192-56.046-125.261-125.147-125.261z" fill="#fff" fill-rule="evenodd"/></g><g><path clip-rule="evenodd" d="m256 304.401c-69.13 0-125.147-56.097-125.147-125.261 0-69.192 56.017-125.261 125.147-125.261 69.101 0 125.147 56.068 125.147 125.261 0 69.164-56.046 125.261-125.147 125.261zm0-294.401c-93.344 0-168.987 75.712-168.987 169.14-.963 92.379 50.891 150.715 103.142 220.39l6.23 7.228 30.841 35.773c8.779 10.176 18.776 15.278 28.773 15.307 9.997-.028 19.994-5.131 28.745-15.307l30.869-35.773 6.23-7.228c52.251-69.674 104.105-128.01 103.142-220.39.001-93.428-75.67-169.14-168.985-169.14z" fill="#ff7b79" fill-rule="evenodd"/></g><g><path clip-rule="evenodd" d="m315.614 406.758-30.869 35.773c-8.751 10.176-18.748 15.278-28.745 15.307-9.997-.028-19.994-5.131-28.773-15.307l-30.841-35.773c-29.283 9.297-48.569 25.228-48.569 43.313 0 28.686 48.428 51.93 108.183 51.93s108.183-23.244 108.183-51.93c0-18.085-19.315-34.016-48.569-43.313z" fill="#d5ea7a" fill-rule="evenodd"/></g><g><path clip-rule="evenodd" d="m256 92.798-61.653 61.681v76.732c0 3.827 3.144 6.945 6.967 6.945h34.069 75.303c3.823 0 6.938-3.118 6.938-6.945v-76.732z" fill="#ffcd69" fill-rule="evenodd"/></g><g><path d="m256 0c-98.676 0-178.958 80.339-178.987 179.092-.885 87.029 43.456 145.294 90.399 206.971 4.037 5.304 8.188 10.761 12.32 16.247-26.499 11.487-41.916 28.771-41.916 47.76 0 17.932 13.267 34.175 37.356 45.737 21.754 10.443 50.459 16.193 80.828 16.193 30.368 0 59.073-5.75 80.827-16.192 24.089-11.562 37.355-27.806 37.355-45.737 0-18.981-15.417-36.265-41.917-47.757 4.087-5.423 8.192-10.819 12.186-16.065 11.469-15.063 22.302-29.291 32.597-43.996 3.167-4.524 2.066-10.76-2.457-13.928-4.525-3.165-10.76-2.066-13.928 2.457-10.065 14.379-20.78 28.452-32.124 43.352-4.738 6.223-9.634 12.653-14.489 19.122l-36.887 42.755c-6.636 7.717-13.964 11.807-21.135 11.827-7.224-.021-14.565-4.114-21.228-11.836 0 0-46.692-55.77-51.474-62.052-46.764-61.44-87.15-114.503-86.314-194.705 0-.035 0-.069 0-.104.001-87.751 71.322-159.141 158.988-159.141 87.665 0 158.986 71.39 158.986 159.14 0 .035 0 .07.001.106.279 26.438-3.915 51.221-12.825 75.766-1.884 5.191.797 10.928 5.988 12.812 5.193 1.886 10.928-.797 12.812-5.987 9.736-26.823 14.323-53.889 14.023-82.747-.028-98.754-80.309-179.09-178.985-179.09zm.028 467.837c13.21-.037 25.762-6.534 36.288-18.774l26.435-30.641c21.724 8.123 35.431 20.208 35.431 31.649 0 19.832-40.322 41.93-98.183 41.93s-98.183-22.098-98.183-41.93c0-11.448 13.704-23.532 35.424-31.648l26.415 30.64c10.564 12.245 23.122 18.737 36.373 18.774z"/><path d="m348.119 170.854-85.045-85.122c-1.875-1.878-4.42-2.933-7.073-2.933s-5.198 1.055-7.074 2.931l-85.074 85.122c-3.904 3.906-3.902 10.238.004 14.143 3.906 3.904 10.238 3.903 14.142-.004l6.348-6.351v52.573c0 9.343 7.611 16.944 16.967 16.944h109.373c9.34 0 16.938-7.602 16.938-16.944v-52.575l6.346 6.351c1.953 1.955 4.514 2.933 7.074 2.933 2.558 0 5.115-.976 7.067-2.926 3.907-3.904 3.91-10.236.007-14.142zm-40.494 57.302h-62.242v-44.963c0-5.522-4.477-10-10-10s-10 4.478-10 10v44.963h-21.036v-69.529l51.652-51.681 51.626 51.673z"/><path d="m276.617 198.919c5.522 0 10-4.478 10-10v-18.368c0-5.522-4.478-10-10-10s-10 4.478-10 10v18.368c0 5.522 4.478 10 10 10z"/><path d="m256 43.88c-74.521 0-135.147 60.678-135.147 135.26 0 74.583 60.626 135.261 135.147 135.261 74.52 0 135.146-60.678 135.146-135.261 0-74.582-60.627-135.26-135.146-135.26zm0 250.52c-63.492 0-115.147-51.706-115.147-115.261s51.655-115.259 115.147-115.259 115.146 51.705 115.146 115.26-51.654 115.26-115.146 115.26z"/><path d="m385.97 291.377-.028.028c-3.905 3.905-3.891 10.223.015 14.128 1.949 1.949 4.506 2.922 7.063 2.922 2.567 0 5.137-.979 7.093-2.936 3.905-3.905 3.905-10.237 0-14.143-3.907-3.903-10.237-3.903-14.143.001z"/></g></g></svg>